<?xml version="1.0" encoding="utf-8"?>
<!-- Generator: Adobe Illustrator 16.0.0, SVG Export Plug-In . SVG Version: 6.00 Build 0)  -->
<!DOCTYPE svg PUBLIC "-//W3C//DTD SVG 1.1//EN" "http://www.w3.org/Graphics/SVG/1.1/DTD/svg11.dtd">
<svg version="1.1" id="Layer_1" xmlns="http://www.w3.org/2000/svg" xmlns:xlink="http://www.w3.org/1999/xlink" x="0px" y="0px"
	 width="68px" height="81.333px" viewBox="0 0 68 81.333" enable-background="new 0 0 68 81.333" xml:space="preserve">
<polygon fill="#FFFFFF" points="54.708,69.354 13.708,69.354 13.708,13.729 61.333,13.729 61.333,7.104 7.083,7.104 7.083,75.979 
	61.333,75.979 61.333,45.356 61.333,45.355 28.333,45.354 28.333,28.122 52.407,28.085 41.25,38 50.042,38 61.268,28.072 
	61.292,28.072 61.292,28.051 61.313,28.032 61.292,28.032 61.292,21.46 21.714,21.458 21.744,21.5 21.708,21.467 21.708,61.854 
	28.333,61.854 28.333,51.979 54.708,51.981 "/>
</svg>
